<svg width="99" height="61" viewBox="0 0 99 61" fill="none" xmlns="http://www.w3.org/2000/svg">
<path fill-rule="evenodd" clip-rule="evenodd" d="M41.0605 3.60906e-05H68.7848C85.3024 3.60906e-05 98.8143 13.5119 98.8143 30.0295C98.8143 46.5181 85.3024 60.03 68.7848 60.03H52.7923V49.67H68.7848C79.5824 49.67 88.4249 40.7982 88.4249 30.0295C88.4249 19.2319 79.5824 10.3894 68.7848 10.3894H47.0431L41.0605 3.60906e-05Z" fill="#F3F5F7"/>
<path fill-rule="evenodd" clip-rule="evenodd" d="M34.1152 49.6707H24.7249L18.942 60.03H28.3607L34.1152 49.6707Z" fill="#F3F5F7"/>
<path fill-rule="evenodd" clip-rule="evenodd" d="M64.4952 60.03H24.339L34.1446 49.67H64.4952V60.03Z" fill="#F3F5F7"/>
<path fill-rule="evenodd" clip-rule="evenodd" d="M34.4362 0.707304L51.6544 30.5324L59.4756 44.0736H47.5687L34.4362 21.3105L22.7627 41.5348L22.7045 41.5055L17.4514 50.6984L11.8775 60.3579H0L17.2181 30.5324L34.4362 0.707304Z" fill="#F3F5F7"/>
</svg>
